<?xml version="1.0" encoding="UTF-8" standalone="no"?>
<!-- Created with Inkscape (http://www.inkscape.org/) -->

<svg
   xmlns:dc="http://purl.org/dc/elements/1.1/"
   xmlns:cc="http://creativecommons.org/ns#"
   xmlns:rdf="http://www.w3.org/1999/02/22-rdf-syntax-ns#"
   xmlns:svg="http://www.w3.org/2000/svg"
   xmlns="http://www.w3.org/2000/svg"
   xmlns:sodipodi="http://sodipodi.sourceforge.net/DTD/sodipodi-0.dtd"
   xmlns:inkscape="http://www.inkscape.org/namespaces/inkscape"
   width="185.64035mm"
   height="25.539503mm"
   viewBox="0 0 657.78077 90.494302"
   id="svg2"
   version="1.1"
   inkscape:version="0.91 r13725"
   sodipodi:docname="drawing.svg">
  <defs
     id="defs4" />
  <sodipodi:namedview
     id="base"
     pagecolor="#ffffff"
     bordercolor="#666666"
     borderopacity="1.0"
     inkscape:pageopacity="0.0"
     inkscape:pageshadow="2"
     inkscape:zoom="0.35"
     inkscape:cx="278.41679"
     inkscape:cy="-668.22483"
     inkscape:document-units="px"
     inkscape:current-layer="text4157"
     showgrid="false"
     inkscape:window-width="1920"
     inkscape:window-height="1058"
     inkscape:window-x="-8"
     inkscape:window-y="-8"
     inkscape:window-maximized="1"
     fit-margin-top="0"
     fit-margin-left="0"
     fit-margin-right="0"
     fit-margin-bottom="0" />
  <metadata
     id="metadata7">
    <rdf:RDF>
      <cc:Work
         rdf:about="">
        <dc:format>image/svg+xml</dc:format>
        <dc:type
           rdf:resource="http://purl.org/dc/dcmitype/StillImage" />
        <dc:title></dc:title>
      </cc:Work>
    </rdf:RDF>
  </metadata>
  <g
     inkscape:label="Layer 1"
     inkscape:groupmode="layer"
     id="layer1"
     transform="translate(-25.444411,-189.07834)">
    <flowRoot
       xml:space="preserve"
       id="flowRoot4141"
       style="font-style:normal;font-variant:normal;font-weight:normal;font-stretch:condensed;font-size:90px;line-height:125%;font-family:'Agency FB';-inkscape-font-specification:'Agency FB Condensed';letter-spacing:0px;word-spacing:0px;fill:#000000;fill-opacity:1;stroke:#000000;stroke-width:1px;stroke-linecap:butt;stroke-linejoin:miter;stroke-opacity:1;"><flowRegion
         id="flowRegion4143"><rect
           id="rect4145"
           width="610.13214"
           height="474.7717"
           x="44.446712"
           y="222.01682"
           style="font-style:normal;font-variant:normal;font-weight:normal;font-stretch:condensed;font-size:90px;font-family:'Agency FB';-inkscape-font-specification:'Agency FB Condensed';fill:#000000;fill-opacity:1;stroke:#000000;stroke-opacity:1;" /></flowRegion><flowPara
         id="flowPara4147"></flowPara></flowRoot>    <flowRoot
       xml:space="preserve"
       id="flowRoot4149"
       style="font-style:normal;font-weight:normal;font-size:40px;line-height:125%;font-family:sans-serif;letter-spacing:0px;word-spacing:0px;fill:#000000;fill-opacity:1;stroke:#000000;stroke-width:1px;stroke-linecap:butt;stroke-linejoin:miter;stroke-opacity:1;"><flowRegion
         id="flowRegion4151"><rect
           id="rect4153"
           width="486.89352"
           height="439.41635"
           x="91.923882"
           y="247.27063"
           style="fill:#000000;fill-opacity:1;stroke:#000000;stroke-opacity:1;" /></flowRegion><flowPara
         id="flowPara4155"></flowPara></flowRoot>    <g
       transform="matrix(0.89665134,0,0,1.1152607,-37.375644,-236.3757)"
       style="font-style:normal;font-variant:normal;font-weight:normal;font-stretch:normal;font-size:71.51715851px;line-height:125%;font-family:'Blackadder ITC';-inkscape-font-specification:'Blackadder ITC, Normal';text-align:start;letter-spacing:0px;word-spacing:0px;writing-mode:lr-tb;text-anchor:start;fill:#000000;fill-opacity:1;stroke:#000000;stroke-width:1px;stroke-linecap:butt;stroke-linejoin:miter;stroke-opacity:1"
       id="text4157">
      <g
         transform="scale(1.1152607,0.89665134)"
         style="font-style:normal;font-weight:normal;font-size:67.5px;line-height:125%;font-family:sans-serif;letter-spacing:0px;word-spacing:0px;fill:#000000;fill-opacity:1;stroke:none;stroke-width:1px;stroke-linecap:butt;stroke-linejoin:miter;stroke-opacity:1"
         id="text4222">
        <path
           d="m 143.43518,493.09119 -8.47046,0 -19.41284,-21.85181 -4.87793,5.20752 0,16.64429 -6.52588,0 0,-49.07593 6.52588,0 0,25.60913 23.82935,-25.60913 7.91015,0 -21.91772,23.07129 22.93945,26.00464 z"
           style=""
           id="path4227" />
        <path
           d="m 183.1178,493.09119 -32.33277,0 0,-49.07593 32.33277,0 0,5.80078 -25.80689,0 0,13.44727 25.80689,0 0,5.80078 -25.80689,0 0,18.22632 25.80689,0 0,5.80078 z"
           style=""
           id="path4229" />
        <path
           d="m 229.1615,479.08362 q 0,2.86743 -1.35132,5.66894 -1.31836,2.80152 -3.72436,4.7461 -2.63672,2.10937 -6.16333,3.2959 -3.49366,1.18652 -8.4375,1.18652 -5.3064,0 -9.55811,-0.98877 -4.21875,-0.98877 -8.6023,-2.93335 l 0,-8.17383 0.46143,0 q 3.72437,3.09815 8.6023,4.77905 4.87793,1.68091 9.16259,1.68091 6.06446,0 9.42627,-2.27417 3.39478,-2.27417 3.39478,-6.06445 0,-3.26294 -1.61499,-4.81201 -1.58203,-1.54907 -4.84497,-2.40601 -2.47193,-0.65918 -5.37232,-1.08764 -2.86743,-0.42847 -6.09741,-1.08765 -6.52588,-1.38428 -9.68994,-4.71314 -3.1311,-3.36181 -3.1311,-8.73413 0,-6.16333 5.20752,-10.08545 5.20751,-3.95507 13.21655,-3.95507 5.17456,0 9.49219,0.98877 4.31762,0.98877 7.64648,2.43896 l 0,7.7124 -0.46143,0 q -2.80151,-2.37304 -7.38281,-3.92212 -4.54834,-1.58203 -9.32739,-1.58203 -5.24048,0 -8.4375,2.1753 -3.16406,2.17529 -3.16406,5.60302 0,3.06519 1.58203,4.81201 1.58203,1.74683 5.57007,2.66968 2.10937,0.46143 5.99853,1.12061 3.88916,0.65918 6.5918,1.35132 5.47119,1.45019 8.23974,4.38354 2.76856,2.93335 2.76856,8.20679 z"
           style=""
           id="path4231" />
        <path
           d="m 277.18274,493.09119 -6.52588,0 0,-24.0271 -24.48853,0 0,24.0271 -6.52587,0 0,-49.07593 6.52587,0 0,19.24805 24.48853,0 0,-19.24805 6.52588,0 0,49.07593 z"
           style=""
           id="path4233" />
        <path
           d="m 329.09314,493.09119 -6.95435,0 -4.81201,-13.67798 -21.22558,0 -4.81202,13.67798 -6.62475,0 17.86377,-49.07593 8.70117,0 17.86377,49.07593 z m -13.77686,-19.28101 -8.60229,-24.09302 -8.63525,24.09302 17.23754,0 z"
           style=""
           id="path4235" />
        <path
           d="m 375.23572,444.01526 -17.86377,49.07593 -8.70117,0 -17.86377,-49.07593 6.9873,0 15.39185,43.17627 15.39184,-43.17627 6.65772,0 z"
           style=""
           id="path4237" />
        <path
           d="m 438.51697,458.8468 q 0,3.26294 -1.15357,6.06445 -1.1206,2.76856 -3.16406,4.81202 -2.53784,2.53784 -5.99853,3.82324 -3.4607,1.25244 -8.73414,1.25244 l -6.52587,0 0,18.29224 -6.52588,0 0,-49.07593 13.31543,0 q 4.4165,0 7.48169,0.75806 3.06518,0.72509 5.43823,2.30712 2.80151,1.87867 4.31763,4.68018 1.54907,2.80151 1.54907,7.08618 z m -6.78955,0.1648 q 0,-2.53785 -0.8899,-4.41651 -0.88989,-1.87866 -2.70263,-3.06518 -1.58203,-1.02173 -3.62549,-1.4502 -2.0105,-0.46142 -5.10864,-0.46142 l -6.45996,0 0,19.61059 5.50415,0 q 3.95507,0 6.427,-0.69214 2.47192,-0.72509 4.02099,-2.27417 1.54908,-1.58203 2.1753,-3.32885 0.65918,-1.74683 0.65918,-3.92212 z"
           style=""
           id="path4239" />
        <path
           d="m 485.84607,493.09119 -6.95435,0 -4.81201,-13.67798 -21.22558,0 -4.81202,13.67798 -6.62475,0 17.86377,-49.07593 8.70117,0 17.86377,49.07593 z m -13.77686,-19.28101 -8.60229,-24.09302 -8.63525,24.09302 17.23754,0 z"
           style=""
           id="path4241" />
        <path
           d="m 533.90027,493.09119 -8.47046,0 -16.41357,-19.51172 -9.19556,0 0,19.51172 -6.52588,0 0,-49.07593 13.7439,0 q 4.44946,0 7.41577,0.59326 2.96631,0.5603 5.33935,2.04346 2.66968,1.68091 4.15284,4.25171 1.51611,2.53784 1.51611,6.45996 0,5.30639 -2.66968,8.89892 -2.66968,3.55957 -7.34985,5.37232 l 18.45703,21.4563 z m -15.26001,-35.26612 q 0,-2.10937 -0.75806,-3.72436 -0.7251,-1.64795 -2.43896,-2.76856 -1.41724,-0.95581 -3.36182,-1.31836 -1.94458,-0.3955 -4.5813,-0.3955 l -7.67944,0 0,18.52295 6.5918,0 q 3.09814,0 5.40527,-0.52735 2.30713,-0.5603 3.92212,-2.04346 1.48315,-1.38427 2.17529,-3.16406 0.7251,-1.81274 0.7251,-4.5813 z"
           style=""
           id="path4243" />
        <path
           d="m 597.34631,444.01526 -12.75512,49.07593 -7.34986,0 -10.31616,-40.73731 -10.08545,40.73731 -7.18506,0 -12.98584,-49.07593 6.69068,0 10.31616,40.80322 10.15137,-40.80322 6.62475,0 10.25025,41.19873 10.25024,-41.19873 6.39404,0 z"
           style=""
           id="path4245" />
        <path
           d="m 645.63123,493.09119 -6.95435,0 -4.81201,-13.67798 -21.22559,0 -4.81201,13.67798 -6.62476,0 17.86377,-49.07593 8.70118,0 17.86377,49.07593 z m -13.77686,-19.28101 -8.60229,-24.09302 -8.63526,24.09302 17.23755,0 z"
           style=""
           id="path4247" />
        <path
           d="m 684.12732,493.09119 -31.04736,0 0,-49.07593 6.52587,0 0,43.27515 24.52149,0 0,5.80078 z"
           style=""
           id="path4249" />
      </g>
    </g>
  </g>
</svg>
