<?xml version="1.0" encoding="UTF-8" standalone="no"?>
<!-- Created with Inkscape (http://www.inkscape.org/) -->

<svg
   xmlns:dc="http://purl.org/dc/elements/1.1/"
   xmlns:cc="http://creativecommons.org/ns#"
   xmlns:rdf="http://www.w3.org/1999/02/22-rdf-syntax-ns#"
   xmlns:svg="http://www.w3.org/2000/svg"
   xmlns="http://www.w3.org/2000/svg"
   xmlns:sodipodi="http://sodipodi.sourceforge.net/DTD/sodipodi-0.dtd"
   xmlns:inkscape="http://www.inkscape.org/namespaces/inkscape"
   width="168.13982mm"
   height="62.362598mm"
   viewBox="0 0 595.77097 220.96982"
   id="svg4361"
   version="1.1"
   inkscape:version="0.91 r13725"
   sodipodi:docname="firstname.svg">
  <defs
     id="defs4363">
    <inkscape:path-effect
       effect="envelope"
       id="path-effect5084"
       is_visible="true"
       yy="true"
       xx="true"
       bendpath1="m 24.28511,43.905111 555.43186,0"
       bendpath2="m 579.71697,43.905111 0,185.887039"
       bendpath3="m 24.28511,229.79215 c 185.14395,-18.57397 370.28791,-13.64536 555.43186,0"
       bendpath4="m 24.28511,43.905111 0,185.887039"
       bendpath3-nodetypes="cc" />
    <inkscape:path-effect
       effect="envelope"
       id="path-effect6896"
       is_visible="true"
       yy="true"
       xx="true"
       bendpath1="m 79.171033,459.57541 606.797367,0"
       bendpath2="m 685.9684,459.57541 0,130.75893"
       bendpath3="m 79.171033,590.33434 c 207.392057,-21.53033 408.917057,-18.419 606.797367,0"
       bendpath4="m 79.171033,459.57541 0,130.75893"
       bendpath3-nodetypes="cc" />
    <inkscape:path-effect
       effect="envelope"
       id="path-effect6891"
       is_visible="true"
       yy="true"
       xx="true"
       bendpath1="m 79.616607,460.09969 605.575643,0"
       bendpath2="m 685.19225,460.09969 0,132.15874"
       bendpath3="m 79.616607,592.25843 c 212.395383,-19.75657 407.757923,-7.57656 605.575643,0"
       bendpath4="m 79.616607,460.09969 0,132.15874"
       bendpath3-nodetypes="cc" />
    <filter
       inkscape:collect="always"
       style="color-interpolation-filters:sRGB"
       id="filter5118"
       x="-0.03579811"
       width="1.0715961"
       y="-0.10985872"
       height="1.2197174">
      <feGaussianBlur
         inkscape:collect="always"
         stdDeviation="8.2927212"
         id="feGaussianBlur5120" />
    </filter>
  </defs>
  <sodipodi:namedview
     id="base"
     pagecolor="#ffffff"
     bordercolor="#666666"
     borderopacity="1.0"
     inkscape:pageopacity="0.0"
     inkscape:pageshadow="2"
     inkscape:zoom="0.49497475"
     inkscape:cx="414.23694"
     inkscape:cy="-73.40856"
     inkscape:document-units="px"
     inkscape:current-layer="layer1"
     showgrid="false"
     fit-margin-top="0"
     fit-margin-left="0"
     fit-margin-right="0"
     fit-margin-bottom="0"
     inkscape:window-width="1600"
     inkscape:window-height="838"
     inkscape:window-x="859"
     inkscape:window-y="1072"
     inkscape:window-maximized="1" />
  <metadata
     id="metadata4366">
    <rdf:RDF>
      <cc:Work
         rdf:about="">
        <dc:format>image/svg+xml</dc:format>
        <dc:type
           rdf:resource="http://purl.org/dc/dcmitype/StillImage" />
        <dc:title></dc:title>
      </cc:Work>
    </rdf:RDF>
  </metadata>
  <g
     inkscape:label="Layer 1"
     inkscape:groupmode="layer"
     id="layer1"
     transform="translate(107.24109,-11.677117)">
    <g
       id="g5122"
       transform="translate(-161.62441,2.0203055)">
      <g
         inkscape:path-effect="#path-effect5084"
         style="fill:#000000;filter:url(#filter5118)"
         id="g5070"
         transform="translate(50.507628,-14.304576)">
        <g
           style="fill:#000000"
           transform="translate(-218.19295,-178.797)"
           id="g5072">
          <path
             inkscape:original-d="m 4.3242188,159.0625 c -4.80096606,0 -10.281816,1.08149 -15.1992188,3.50391 -0.201765,0.0998 -0.4023,0.20198 -0.601562,0.30664 -3.346588,1.75168 -6.623911,4.16507 -9.373047,7.04297 -2.487296,2.60374 -4.758913,5.78339 -6.449219,9.32226 -1.036618,2.17038 -2.014823,4.63394 -2.732422,7.63867 l -0.002,0.008 -4.855469,20.35937 c -0.387425,-0.17069 -0.768146,-0.39472 -1.15625,-0.54883 -4.27797,-1.69865 -8.632715,-2.62509 -12.789062,-2.99804 -2.540572,-0.22795 -5.062585,-0.36133 -7.621094,-0.36133 -3.79252,0 -7.695331,0.42928 -11.542969,1.36914 -0.07038,0.0173 -0.140694,0.0349 -0.210937,0.0527 -3.046617,0.76983 -5.99267,1.79084 -8.806641,3.00977 -0.109035,0.0475 -0.217761,0.0957 -0.326172,0.14453 -2.780325,1.24738 -5.429015,2.69438 -7.947265,4.29492 -1.658596,1.05417 -3.30234,2.21234 -4.947266,3.38867 -3.075067,1.77335 -6.019742,3.72305 -8.699219,5.9375 -0.09296,0.0769 -0.185405,0.15434 -0.277344,0.23242 -0.137337,0.11657 -0.24818,0.26336 -0.384765,0.38086 -0.02802,-0.0264 -0.05199,-0.0577 -0.08008,-0.084 l -0.002,0 c -4.750447,-4.44008 -10.275237,-7.39193 -15.566397,-9.19531 -5.86194,-1.99791 -11.52246,-2.63672 -16.90822,-2.63672 -6.84971,0 -13.87749,1.27827 -20.35741,3.83594 -0.0482,0.0194 -0.0964,0.0389 -0.14453,0.0586 -5.30027,2.12693 -10.33186,4.93145 -14.92969,8.28711 -0.0405,0.0294 -0.0767,0.0643 -0.11718,0.0937 0.10174,-0.15876 0.22486,-0.30187 0.32617,-0.46094 1.64635,-2.58466 2.85035,-5.42568 3.5625,-8.40625 0.83964,-3.51583 0.99218,-6.31726 0.99218,-8.8125 0,-3.24655 -0.37781,-6.2409 -0.95117,-9.03906 -0.66512,-3.3087 -1.76929,-6.76648 -3.44922,-10.18164 -1.93382,-3.98381 -4.87424,-8.04468 -8.66992,-11.35938 -5.3339,-4.65962 -13.76506,-7.95703 -20.92969,-7.95703 -7.53571,0 -16.75426,3.32614 -22.69531,8.69727 -3.18004,2.87501 -5.85425,6.16613 -7.99023,9.58594 -0.038,0.0624 -0.0758,0.12485 -0.11328,0.1875 -0.35846,-0.57472 -0.64989,-1.14946 -1.06055,-1.72266 -3.90945,-5.45668 -9.90307,-9.332 -15.17188,-11.22656 -5.16958,-1.89098 -9.23347,-2.19727 -12.63867,-2.19727 -6.56719,0 -15.22505,2.023 -22.12695,7.55664 -6.90191,5.53365 -10.65591,13.33388 -12.1504,19.5918 l -0.008,0.0391 -18.48633,77.91211 c -0.46853,1.96446 -0.90914,4.01422 -1.33594,6.18359 -8.1e-4,0.004 -0.001,0.008 -0.002,0.0117 -0.42066,2.08485 -0.8091,4.18545 -1.16602,6.30274 -0.0418,0.24881 -0.0802,0.49818 -0.11523,0.74804 -0.29343,2.08877 -0.56173,4.16392 -0.80077,6.22852 -0.0272,0.23731 -0.0513,0.47496 -0.0723,0.71289 -0.21772,2.43108 -0.34961,4.8216 -0.34961,7.27734 0,1.99115 0.0864,3.9383 0.23242,5.92579 0.002,0.0267 0.004,0.0534 0.006,0.0801 0.2712,3.54859 0.97911,7.1411 2.1211,10.57813 0.0396,0.11811 0.0799,0.23595 0.12109,0.35351 1.53681,4.42413 4.18095,9.14393 7.93164,13.07032 0.20491,0.21428 0.41327,0.42525 0.625,0.63281 6.16945,6.05479 15.71683,9.14062 22.64453,9.14062 6.9554,4e-5 17.24484,-2.42812 24.6875,-10.04101 4.52021,-4.60056 7.77202,-10.57146 9.33985,-16.22461 l 0,-0.002 c 1.14247,-4.11969 1.68167,-8.23025 1.7871,-12.20118 l -0.0293,0.72852 c 0.0946,-1.78374 0.15894,-3.44638 0.2168,-5.08594 0.10309,0.0713 -3e-5,-0.007 0.12891,0.0899 0.1832,0.13772 0.36811,0.27314 0.55469,0.40625 0.33924,0.24179 0.78057,0.61359 1.40039,1.3789 0.0717,0.0883 0.14399,0.17623 0.21679,0.26367 0.50763,0.61111 1.09383,1.4747 1.72657,2.82227 0.0778,0.1655 0.15721,0.33022 0.23828,0.49414 0.31247,0.63241 0.55693,1.32013 0.73241,2.43359 5.7e-4,0.004 0.001,0.004 0.002,0.008 l 0.29688,1.95703 c 0.01,0.0619 0.0193,0.12373 0.0293,0.18555 0.18351,1.15267 0.37268,2.40865 0.56445,3.76367 0.0441,0.31398 0.0936,0.62718 0.14843,0.93945 0.59306,3.35235 1.55897,6.81239 3.05078,10.24805 0.13197,0.30257 0.26937,0.60275 0.41211,0.90039 2.23463,4.67855 5.85127,9.3712 10.3047,12.83984 7.19127,5.61296 15.3623,7.08594 21.31835,7.08594 4.65531,0 9.76585,-0.97431 14.375,-3.00586 3.43895,-1.51577 6.76618,-3.66753 9.67188,-6.22461 0.038,-0.0329 0.0676,-0.0725 0.10546,-0.10547 0.007,0.003 0.0129,0.007 0.0195,0.01 0.0957,-0.085 0.20997,-0.14844 0.30469,-0.23438 l -0.28125,0.2461 c 2.81212,1.31435 5.72713,2.47655 8.78906,3.30078 3.13433,0.84371 6.38795,1.47871 9.78906,1.8125 0.0267,0.003 0.0534,0.005 0.0801,0.008 2.38399,0.22689 4.67929,0.37305 7.13477,0.37305 9.25596,0 18.47846,-1.39553 27.22657,-4.33008 4.33905,-1.44714 8.48395,-3.34503 12.46483,-5.54297 0.32125,0.23724 0.621,0.53147 0.94531,0.75781 0.36509,0.25505 0.73629,0.50121 1.11329,0.73828 3.05754,1.92046 6.30037,3.47468 9.58984,4.66211 0.27903,0.10088 0.55967,0.19724 0.8418,0.28906 3.653449,1.1869 7.840103,2.09766 12.724611,2.09766 5.340336,0 10.354023,-0.79215 15.160156,-2.02539 4.433346,-1.12437 8.788026,-2.59487 13.025391,-4.38477 0.07697,-0.0322 0.153794,-0.0647 0.230469,-0.0976 2.623217,-1.1363 5.08771,-2.58611 7.599609,-3.94336 l 0.01953,0.0273 c 6.780877,9.60389 19.401478,13.58008 27.046876,13.58008 5.292089,0 12.667516,-0.64256 20.5253901,-6.41992 0.9601859,-0.69501 1.7862233,-1.41362 2.6015625,-2.13477 8.4965739,8.45614 18.8612984,9.80079 25.6718754,9.80078 5.776624,0 12.864008,-1.71371 18.765625,-5.54687 3.146313,-2.01534 5.990066,-4.59931 8.339843,-7.45117 2.734653,1.73079 5.518779,3.19676 8.246094,4.14844 4.417216,1.54135 9.126661,2.2871 13.605469,2.2871 4.293566,0 8.225721,-0.77184 11.826172,-1.89843 3.789805,2.29788 7.07228,3.2926 9.777343,3.92187 0.10468,0.024 0.2095,0.0475 0.314454,0.0703 4.084393,0.90012 7.0216,0.97851 9.90039,0.97851 4.856,0 11.32676,-0.93017 17.75976,-4.9707 3.13924,-1.97174 6.27982,-4.64275 8.88867,-7.91992 0.22158,-0.2777 0.43777,-0.55966 0.64844,-0.84571 0.14577,-0.19838 0.27136,-0.46638 0.41602,-0.67187 0.81068,1.30864 1.6473,2.5999 2.58008,3.7539 0.037,0.045 0.0741,0.09 0.11132,0.13477 2.59832,3.17328 5.92248,6.05777 9.5625,8.20117 l 0,0.002 c 5.38179,3.169 11.68371,4.56055 16.92578,4.56055 1.64345,0 3.55087,-0.22213 5.58204,-0.61133 0.39953,-0.0692 0.96764,-0.0631 1.33789,-0.14062 3.63773,-0.7616 6.08774,-1.82016 8.16992,-2.82617 3.45457,-1.66912 6.00733,-3.58841 8.14648,-5.4668 2.94119,-2.51849 5.06206,-5.03721 6.79297,-7.45313 l 0.002,0 c 1.51903,-2.12024 2.65523,-4.15702 3.67774,-6.17187 l 36.25781,-53.57422 0.0254,-0.0391 c 2.87092,-4.25763 5.38279,-8.80135 7.24414,-14.10352 1.90664,-5.33815 2.94336,-11.12827 2.94336,-16.84375 0,-6.09437 -1.66687,-13.79623 -6.21094,-20.39844 -7.6227,-11.12975 -20.46198,-13.90234 -27.6289,-13.90234 -4.23424,0 -8.9944,0.75434 -13.57031,2.61719 -0.17325,0.0705 -0.34579,0.14278 -0.51758,0.2168 -3.12651,1.34769 -6.19469,3.19306 -8.94141,5.43359 -2.74358,2.22751 -5.06851,4.82354 -6.9375,7.49609 -0.0519,0.0721 -0.1005,0.16363 -0.15234,0.23633 -0.005,-0.007 -0.0121,-0.0141 -0.0176,-0.0215 -0.0289,0.042 -0.069,0.081 -0.0977,0.12304 l 0.0918,-0.13086 c -1.54163,-2.09796 -3.32365,-4.09919 -5.39453,-5.90234 -7.06305,-6.2256 -16.3776,-8.57227 -23.17969,-8.57226 -6.75456,0 -14.09445,2.60232 -19.16601,6.29687 -4.87392,-1.76734 -9.22455,-2.22852 -12.97071,-2.22852 -2.04735,0 -4.14831,0.13566 -6.26953,0.43165 l -0.0488,0.008 c -0.0462,-0.005 -0.0845,-0.0125 -0.13086,-0.0176 -0.004,-4.9e-4 -0.009,4.9e-4 -0.0137,0 -2.29829,-0.25741 -4.62646,-0.42188 -7.10547,-0.42188 -4.68857,0 -9.353258,0.52829 -13.892571,1.49415 -7.323723,1.48646 -13.759333,4.729 -19.078125,8.60937 -3.36916,2.44775 -6.513268,5.16495 -9.546875,8 -6.875239,-6.12071 -16.818278,-9.63086 -24.451172,-9.63086 -0.77051,0 -1.535412,0.17273 -2.306641,0.20117 1.200199,-4.92549 2.518974,-10.12269 3.654297,-14.89844 l 0.0039,-0.0195 c 0.337489,-1.4146 0.633088,-2.8206 0.880859,-4.37695 0.01757,-0.10797 0.0345,-0.21605 0.05078,-0.32422 0.159671,-1.08644 0.453125,-0.68955 0.453125,-5.42187 0,-6.25159 -2.751096,-14.88811 -8.082031,-20.74219 -3.852932,-4.20159 -8.926554,-7.16982 -13.539062,-8.69141 -3.152435,-1.06761 -6.159634,-1.62469 -8.9218755,-1.83007 -1.6084708,-0.1619 -3.2374897,-0.2978 -4.9646397,-0.2978 z m -227.4374988,37.17188 0.23242,1.32421 c -0.0176,-0.11687 -0.0786,-0.26637 -0.0977,-0.38476 -0.0576,-0.32487 -0.0677,-0.60595 -0.13476,-0.93945 z m 0.66992,14.14453 -0.082,1.18164 c 0.0234,-0.25748 0.013,-0.50699 0.0332,-0.76367 0.008,-0.14372 0.0419,-0.27367 0.0488,-0.41797 z m -0.62109,5.81836 -0.19141,1.20703 c 0.0178,-0.0979 0.0178,-0.20649 0.0352,-0.30469 0.045,-0.30243 0.11482,-0.5988 0.15625,-0.90234 z m 201.046872,0.31054 0.873047,1.00781 c -0.188515,-0.2285 -0.419926,-0.42618 -0.615235,-0.65039 -0.09892,-0.11215 -0.156915,-0.24651 -0.257812,-0.35742 z m 166.835938,2.31055 0.65234,0.76953 c -0.14394,-0.1758 -0.31367,-0.31825 -0.46093,-0.49023 -0.0742,-0.086 -0.11633,-0.19416 -0.19141,-0.2793 z m -129.214844,0.38281 c -0.04078,0.0144 -0.07839,0.0363 -0.119141,0.0508 -0.0304,0.011 -0.06336,0.0144 -0.09375,0.0254 z M 183.40625,226.5 l 0.10156,0.26367 c -0.0186,-0.0493 -0.0476,-0.10099 -0.0664,-0.15039 -0.0148,-0.0385 -0.0202,-0.0748 -0.0352,-0.11328 z m -118.888672,1.5957 0.265625,0.32032 c -0.05405,-0.0667 -0.122961,-0.12323 -0.177734,-0.18946 -0.03379,-0.0408 -0.05389,-0.0902 -0.08789,-0.13086 z m 87.097652,2.72657 0.52344,1.73632 c -0.0581,-0.219 -0.19616,-0.44383 -0.25976,-0.66406 -0.1072,-0.35468 -0.14513,-0.72064 -0.26368,-1.07226 z m -35.22851,0.90234 c -0.009,0.0398 -0.0105,0.0793 -0.0195,0.11914 -0.008,0.0348 -0.0236,0.0726 -0.0312,0.10742 l 0.0508,-0.22656 z m -205.902345,5.37305 0.09766,0.25 c -0.02084,-0.0545 -0.05115,-0.10761 -0.07227,-0.16211 -0.01124,-0.0288 -0.01408,-0.0592 -0.02539,-0.0879 z m 275.976565,1.96289 0.0723,0.59961 c -0.007,-0.0665 -0.0256,-0.13653 -0.0332,-0.20313 -0.0169,-0.13019 -0.0217,-0.26647 -0.0391,-0.39648 z m -389.89258,1.625 0.125,0.0859 c -0.0223,-0.0154 -0.048,-0.0256 -0.0703,-0.041 -0.0195,-0.0133 -0.0352,-0.0316 -0.0547,-0.0449 z m -38.53125,53.89843 c 0.31022,-0.13437 1.2887,0.4699 -1.20313,0.89258 0.0107,-0.13819 0.0181,-0.2682 0.0293,-0.4082 0.11561,-0.0462 0.27814,-0.11549 0.39063,-0.16016 0.26271,-0.10405 0.52381,-0.21214 0.7832,-0.32422 z m 103.97461,12.44922 -0.10156,0.0234 c 0.0106,-0.003 0.0207,-0.007 0.0312,-0.01 0.0236,-0.006 0.0467,-0.008 0.0703,-0.0137 z m 103.310546,10.57032 -1.035157,0.94921 c 0.251053,-0.219 0.365528,-0.36085 0.595703,-0.56835 0.141556,-0.13435 0.298897,-0.24504 0.439454,-0.38086 z m 42.0605465,5.26171 -0.3339844,0.67774 c 0.038527,-0.0753 0.057667,-0.14759 0.095703,-0.22266 0.071728,-0.14696 0.1690418,-0.31011 0.2382814,-0.45508 z m 47.3339845,3.97852 -0.8125,1.29102 c 0.103299,-0.15448 0.155359,-0.31937 0.255859,-0.47461 0.174075,-0.27512 0.393021,-0.53972 0.556641,-0.81641 z m -225.546877,0.21289 -0.40625,0.63867 c 0.075,-0.11424 0.12916,-0.24602 0.20313,-0.36133 0.0596,-0.0945 0.14461,-0.18268 0.20312,-0.27734 z"
             transform="translate(555.58389,63.639611)"
             style="font-style:normal;font-variant:normal;font-weight:normal;font-stretch:normal;font-size:166.26571655px;line-height:125%;font-family:'MV Boli';-inkscape-font-specification:'MV Boli, Normal';text-align:start;letter-spacing:0px;word-spacing:0px;writing-mode:lr-tb;text-anchor:start;fill:#000000;fill-opacity:1;stroke:none;stroke-width:1px;stroke-linecap:butt;stroke-linejoin:miter;stroke-opacity:1"
             d="m 4.2991512,159.0213 c -4.79742528,3e-5 -10.2652,1.01335 -15.1548582,3.29027 -0.200778,0.0939 -0.400321,0.19001 -0.598583,0.2885 -3.329145,1.64799 -6.590429,3.92468 -9.326774,6.65518 -2.475762,2.47042 -4.73913,5.49956 -6.423579,8.89173 -1.032861,2.08008 -2.008491,4.44826 -2.722766,7.34769 0,0 -0.002,0.008 -0.002,0.008 -1.752233,7.12288 -3.093313,12.57881 -4.861007,19.77558 -0.390316,-0.16706 -0.773658,-0.38604 -1.164645,-0.53684 -4.308476,-1.66165 -8.694742,-2.56602 -12.879962,-2.92847 -2.558332,-0.22155 -5.098371,-0.35007 -7.674826,-0.34767 -3.819048,0.004 -7.750257,0.42757 -11.62593,1.3523 -0.0709,0.017 -0.141729,0.0343 -0.21249,0.0518 -3.069115,0.75737 -6.037266,1.76144 -8.872935,2.96089 -0.109873,0.0467 -0.219437,0.0942 -0.328684,0.14221 -2.801883,1.22736 -5.471167,2.65153 -8.009534,4.22813 -1.671945,1.03845 -3.32846,2.17936 -4.986633,3.33949 -3.09933,1.75168 -6.066485,3.67818 -8.767011,5.86576 -0.09368,0.076 -0.186844,0.15244 -0.279497,0.22956 -0.138375,0.11511 -0.250175,0.25976 -0.38779,0.37579 -0.02819,-0.0257 -0.05232,-0.0563 -0.08058,-0.0819 0,0 -0.002,2e-5 -0.002,2e-5 -4.78181,-4.32526 -10.33947,-7.18535 -15.66359,-8.91879 -5.89764,-1.92017 -11.59226,-2.5061 -17.01048,-2.46325 -6.89089,0.0545 -13.96095,1.37157 -20.47744,3.9567 -0.0485,0.0196 -0.0969,0.0393 -0.14534,0.0592 -5.33125,2.14948 -10.38591,4.97105 -15.0036,8.34244 -0.0406,0.0295 -0.0771,0.0645 -0.11766,0.094 0.10212,-0.15802 0.22584,-0.30104 0.32754,-0.45935 1.65348,-2.57356 2.8641,-5.39318 3.58336,-8.3431 0.84808,-3.47996 1.00802,-6.24251 1.0162,-8.70121 0.0106,-3.19822 -0.35471,-6.13982 -0.91276,-8.88258 -0.64701,-3.24354 -1.72695,-6.62246 -3.37353,-9.94787 -1.89464,-3.87889 -4.7822,-7.8157 -8.51678,-11.01523 -5.24364,-4.49399 -13.59592,-7.66452 -20.76046,-7.64836 -7.54363,0.017 -16.89449,3.26186 -22.97602,8.56696 -3.25506,2.83951 -5.99171,6.09422 -8.1777,9.49163 -0.0389,0.0619 -0.0776,0.12394 -0.11592,0.18613 -0.35126,-0.56567 -0.6348,-1.13148 -1.03742,-1.69511 -3.82948,-5.36083 -9.73297,-9.15353 -14.94765,-10.99994 -5.12058,-1.84508 -9.16864,-2.13503 -12.57781,-2.12378 -6.55633,0.0216 -15.31249,2.04789 -22.30564,7.59081 -7.0127,5.55843 -10.76081,13.3433 -12.22726,19.62341 0,0 -0.008,0.0391 -0.008,0.0391 -9.3637,40.36994 -8.1479,37.66844 -17.98389,77.98724 -0.48177,1.96505 -0.93932,4.01656 -1.38642,6.18711 -0.001,0.006 -8.7e-4,0.006 -0.002,0.0117 -0.44,2.08591 -0.85048,4.18921 -1.23071,6.30834 -0.0446,0.24907 -0.0858,0.4987 -0.12366,0.74881 -0.3174,2.09057 -0.6106,4.16867 -0.87414,6.23574 -0.03,0.23763 -0.057,0.47557 -0.0809,0.71378 -0.2471,2.43318 -0.40814,4.82807 -0.43579,7.28449 -0.0224,1.99172 0.0435,3.94011 0.17201,5.92548 0,-3e-5 0.005,0.0801 0.005,0.08 0.24016,3.54679 0.92565,7.12551 2.06662,10.53075 0.0396,0.11697 0.0798,0.23363 0.121,0.34998 1.5396,4.38756 4.21306,8.99635 8.04814,12.73463 0.2091,0.2036 0.42171,0.4036 0.63773,0.59992 6.31869,5.74879 15.97424,8.16822 22.90017,7.76371 6.9472,-0.40571 17.08227,-3.3488 24.30789,-10.87479 4.39177,-4.5521 7.55757,-10.3282 9.08137,-15.75647 0,0 -1e-5,-0.002 -1e-5,-0.002 1.11148,-3.95972 1.64028,-7.90394 1.74661,-11.72445 -0.01,0.23369 -0.0196,0.46731 -0.0293,0.70084 0.0945,-1.71886 0.16043,-3.3164 0.22148,-4.90272 0.10298,0.0659 -2.8e-4,-0.007 0.12844,0.0828 0.18252,0.12732 0.36678,0.25229 0.55272,0.37493 0.33858,0.22307 0.77735,0.5673 1.39557,1.28465 0.0715,0.0827 0.14353,0.16501 0.21611,0.2468 0.50663,0.57235 1.09001,1.38231 1.72273,2.65332 0.0777,0.15599 0.15711,0.31111 0.23816,0.46534 0.31261,0.59547 0.55697,1.24421 0.73442,2.30165 5.8e-4,0.004 0.001,0.004 0.002,0.008 0.10006,0.61927 0.20049,1.23784 0.3013,1.85555 0.0102,0.0586 0.0197,0.11717 0.0298,0.17565 0.18708,1.09194 0.38083,2.27655 0.58017,3.55442 0.0458,0.29588 0.0971,0.59062 0.15389,0.88408 0.61374,3.15073 1.61325,6.36423 3.15821,9.49736 0.13663,0.27585 0.27879,0.54894 0.4264,0.81914 2.31961,4.26327 6.03577,8.35256 10.61183,11.23433 7.33557,4.63005 15.65721,5.37195 21.55861,5.00962 4.64311,-0.28507 9.72239,-1.43891 14.2579,-3.44955 3.38675,-1.50138 6.65884,-3.54065 9.50682,-5.90838 0.0374,-0.0306 0.0659,-0.0664 0.10317,-0.0971 0.006,0.002 0.0136,0.006 0.0197,0.008 0.0938,-0.0786 0.20697,-0.13967 0.29975,-0.21907 -0.092,0.0761 -0.18402,0.1521 -0.27601,0.22815 2.84788,1.00951 5.79002,1.86894 8.87699,2.42887 3.15844,0.57287 6.42894,0.95712 9.84104,1.08227 0.0268,0.001 0.0536,0.002 0.0804,0.003 2.39271,0.0818 4.68983,0.1006 7.14872,-0.008 9.23749,-0.40823 18.48795,-1.94325 27.19201,-4.68277 4.32929,-1.35551 8.46732,-3.07389 12.44468,-5.04279 0.32569,0.19425 0.62628,0.43484 0.95495,0.61927 0.3685,0.20698 0.74305,0.40603 1.12333,0.59704 3.08289,1.54665 6.35122,2.76764 9.65752,3.68015 0.28057,0.0776 0.56271,0.15132 0.84629,0.22128 3.674311,0.90461 7.872382,1.5652 12.769421,1.48099 5.348913,-0.092 10.377488,-0.80964 15.193161,-1.87579 4.443106,-0.97277 8.816912,-2.22191 13.072756,-3.73565 0.07734,-0.0273 0.154534,-0.0548 0.23158,-0.0826 2.643958,-0.96404 5.107054,-2.18178 7.643302,-3.33625 1e-6,0 0.01954,0.0231 0.01954,0.0231 6.717534,8.03474 19.45967,11.30256 27.046868,11.38861 5.240355,0.0594 12.759406,-0.33834 20.6627786,-4.97514 0.9732242,-0.56193 1.8113317,-1.14736 2.6395318,-1.73777 8.3411143,7.19933 18.8003196,8.5875 25.5598266,8.80403 5.764183,0.18465 12.949729,-0.96932 18.938149,-3.99164 3.204212,-1.59359 6.108467,-3.69517 8.522259,-6.08798 2.71026,1.59509 5.47241,2.96391 8.183988,3.89042 4.388199,1.49938 9.097393,2.3419 13.580846,2.53694 4.304374,0.18725 8.261964,-0.30305 11.901271,-1.12877 3.735571,2.18183 6.993113,3.2091 9.681831,3.89242 0.104079,0.0261 0.208313,0.0519 0.312701,0.077 4.06766,0.99008 6.993042,1.20897 9.881442,1.3575 4.83124,0.24844 11.40422,-0.21732 17.93471,-3.52881 3.20023,-1.62277 6.41066,-3.89639 9.08837,-6.79637 0.2273,-0.24559 0.44916,-0.49562 0.66546,-0.74995 0.15041,-0.17727 0.27965,-0.4171 0.42894,-0.60131 0.78717,1.24246 1.59812,2.46854 2.50581,3.57194 0.036,0.0431 0.0722,0.0861 0.1084,0.12898 2.52711,3.03342 5.77565,5.83889 9.34454,7.98775 0,0 -6e-5,0.002 -6e-5,0.002 5.27438,3.17572 11.52671,4.81093 16.76507,5.10062 1.64333,0.0909 3.5597,-0.009 5.60551,-0.26029 0.40153,-0.0425 0.97055,-0.006 1.3431,-0.0583 3.66757,-0.51231 6.15285,-1.3755 8.26885,-2.21717 3.51017,-1.39626 6.11542,-3.09409 8.30027,-4.78897 3.00057,-2.26778 5.16863,-4.60199 6.93239,-6.86434 0,0 0.002,7e-5 0.002,7e-5 1.54754,-1.98508 2.70644,-3.92011 3.74303,-5.84036 11.86521,-16.45762 24.27511,-35.10768 35.81132,-52.421 0.001,-0.002 0.0239,-0.0374 0.0249,-0.039 2.81927,-4.24681 5.28386,-8.78509 7.12228,-14.08798 1.88143,-5.33389 2.92399,-11.13183 2.95857,-16.84201 0.0369,-6.08772 -1.54059,-13.79675 -5.97725,-20.40407 -7.44753,-11.14651 -20.20146,-13.98372 -27.33231,-14.02484 -4.21109,-0.0243 -8.95008,0.70023 -13.50881,2.5298 -0.17261,0.0692 -0.34452,0.14026 -0.51568,0.21302 -3.11506,1.32472 -6.17439,3.14566 -8.91532,5.36206 -2.73782,2.20345 -5.0611,4.77713 -6.93094,7.43002 -0.0519,0.0716 -0.10063,0.16256 -0.15248,0.23471 -0.005,-0.007 -0.012,-0.0142 -0.0174,-0.0216 -0.0289,0.0417 -0.069,0.0803 -0.0977,0.12202 -6e-5,9e-5 0.0919,-0.12997 0.0918,-0.12989 -1.527,-2.11 -3.29491,-4.12448 -5.35385,-5.94317 -7.02113,-6.27757 -16.32527,-8.69228 -23.11671,-8.75353 -6.74303,-0.0608 -14.07585,2.45803 -19.14011,6.07464 -4.87205,-1.80439 -9.22798,-2.3042 -12.97458,-2.34122 -2.04846,-0.0202 -4.15067,0.0935 -6.27326,0.3656 -1e-5,0 -0.0488,0.007 -0.0488,0.007 -0.0463,-0.005 -0.0846,-0.0132 -0.13102,-0.0187 -0.004,-5.4e-4 -0.01,4e-4 -0.0137,-1.4e-4 -2.30108,-0.27766 -4.63222,-0.46319 -7.1148,-0.48735 -4.6949,-0.0457 -9.367494,0.43193 -13.914401,1.342 -7.335802,1.39729 -13.785291,4.53592 -19.117292,8.3095 -3.378036,2.3806 -6.531708,5.02741 -9.576312,7.78877 -6.906678,-6.10581 -16.889754,-9.63906 -24.566701,-9.69813 -0.774109,-0.006 -1.543349,0.15785 -2.318231,0.17993 1.206241,-4.85107 2.509448,-9.89713 3.636134,-14.58604 0,0 0.0038,-0.0191 0.0038,-0.0191 0.333251,-1.38187 0.623903,-2.75566 0.864401,-4.27407 0.01707,-0.10536 0.03349,-0.21082 0.04925,-0.31636 0.151423,-1.03931 0.455339,-0.69299 0.420345,-5.28471 -0.04659,-6.11322 -2.904041,-14.43703 -8.358436,-20.05034 -3.933598,-4.02059 -9.078987,-6.83037 -13.722605,-8.2663 -3.174531,-1.00757 -6.195626,-1.53127 -8.9606812,-1.72422 -1.6118054,-0.15217 -3.2430464,-0.27969 -4.9702816,-0.27968 z M -223.97647,195.57343 c 0.0753,0.43714 0.15075,0.8744 0.22635,1.31168 -0.0171,-0.11563 -0.0775,-0.26377 -0.096,-0.38088 -0.0562,-0.32212 -0.0649,-0.60028 -0.13034,-0.9308 0,0 4e-5,0 4e-5,0 z m 0.64347,14.04881 c -0.0271,0.39221 -0.0542,0.78452 -0.0812,1.1768 0.0232,-0.25661 0.0126,-0.50459 0.0326,-0.76034 0.008,-0.14313 0.0417,-0.27278 0.0485,-0.41646 z m -0.61389,5.7988 c -0.0631,0.40135 -0.12609,0.8028 -0.18907,1.20419 0.0176,-0.0977 0.0174,-0.20583 0.0346,-0.30383 0.0444,-0.30164 0.11364,-0.59768 0.15451,-0.90036 0,0 -4e-5,0 -4e-5,0 z m 202.122811,-1.0661 c 0.293199,0.32942 0.586379,0.65886 0.879566,0.98835 -0.189925,-0.22409 -0.423035,-0.41811 -0.619806,-0.63799 -0.09966,-0.10998 -0.158111,-0.2416 -0.25976,-0.35036 z m 167.403639,3.71791 c 0.21661,0.25782 0.43319,0.51568 0.64975,0.77354 -0.14333,-0.17666 -0.3125,-0.32042 -0.45917,-0.4933 -0.0739,-0.0865 -0.11579,-0.19464 -0.19058,-0.28024 z M 16.047439,217.15876 c -0.04101,0.0139 -0.07885,0.0351 -0.119824,0.0491 -0.03058,0.0106 -0.06371,0.0137 -0.0943,0.0243 1.92e-4,-6e-5 0.21393,-0.0733 0.214122,-0.0734 z m 167.950181,8.97984 c 0.0118,0.0312 0.0881,0.23324 0.0999,0.26443 -0.0183,-0.0495 -0.0469,-0.10135 -0.0654,-0.15091 -0.0146,-0.0386 -0.0198,-0.0749 -0.0345,-0.11352 0,0 4e-5,0 4e-5,0 z m -118.793524,0.19022 c 6.91e-4,8.2e-4 0.265863,0.31768 0.266554,0.31851 -0.05425,-0.0663 -0.123382,-0.12276 -0.178355,-0.18862 -0.0339,-0.0406 -0.05409,-0.0895 -0.0882,-0.12989 z m 87.130324,3.77917 c 0.17279,0.57901 0.3452,1.15675 0.51801,1.73571 -0.0575,-0.21889 -0.19456,-0.44435 -0.2575,-0.66454 -0.10607,-0.35447 -0.14313,-0.71958 -0.26051,-1.07117 z m -35.17191,0.44707 c -0.009,0.0393 -0.0106,0.0786 -0.0196,0.11787 -0.008,0.0344 -0.0237,0.0717 -0.0313,0.10609 -8e-5,3.5e-4 0.0511,-0.22431 0.051,-0.22396 0,0 -1e-4,0 -1e-4,0 z m -206.995544,4.03357 c -9.1e-5,-2.2e-4 0.09836,0.24387 0.09827,0.24364 -0.02097,-0.0531 -0.05148,-0.10481 -0.07273,-0.15792 -0.01131,-0.0281 -0.01416,-0.0578 -0.02554,-0.0857 0,0 0,1e-5 0,1e-5 z m 276.822844,4.12691 c 0.0234,0.19981 0.0468,0.3996 0.0703,0.5994 -0.007,-0.0665 -0.0251,-0.13657 -0.0325,-0.20314 -0.0165,-0.13009 -0.0209,-0.26634 -0.0378,-0.39626 z m -391.26798,0.77032 c -3e-5,-1e-5 0.12512,0.0831 0.1251,0.0831 -0.0223,-0.0149 -0.048,-0.0246 -0.0703,-0.0395 -0.0195,-0.0129 -0.0352,-0.0307 -0.0547,-0.0436 z m -38.58366,53.65842 c 0.30871,-0.13829 1.28517,0.41782 -1.20282,0.89802 0.0111,-0.13398 0.0189,-0.26018 0.0305,-0.39597 0.11587,-0.0482 0.27737,-0.1195 0.39012,-0.16609 0.26236,-0.10815 0.52314,-0.22015 0.78223,-0.33596 z m 104.21207,8.55735 c 0,0 -0.10206,0.0238 -0.10205,0.0238 0.0103,-0.003 0.021,-0.007 0.0313,-0.01 0.0237,-0.006 0.0469,-0.008 0.0707,-0.0142 0,0 6e-5,2.7e-4 6e-5,2.7e-4 z m 103.965495,8.16858 c -0.3485,0.2749 -0.696982,0.54949 -1.045462,0.82381 0.252634,-0.18917 0.370129,-0.31372 0.601716,-0.49316 0.142476,-0.11623 0.302265,-0.21303 0.443746,-0.33065 z m 42.2682669,5.07141 c -0.1140714,0.1942 -0.2281643,0.38821 -0.3422796,0.58205 0.03943,-0.0645 0.059441,-0.12699 0.098371,-0.19137 0.07371,-0.1265 0.1727387,-0.2657 0.2439089,-0.39068 z m 47.4935701,4.72555 c -0.27874,0.36847 -0.557639,0.73625 -0.836705,1.10333 0.106348,-0.13165 0.161211,-0.27398 0.264717,-0.40657 0.179189,-0.23488 0.403395,-0.4596 0.571988,-0.69676 z m -226.556842,1.06546 c -0.13271,0.19393 -0.26539,0.38782 -0.39797,0.58159 0.0736,-0.10422 0.12575,-0.22268 0.19833,-0.32786 0.0583,-0.0859 0.14242,-0.16769 0.19964,-0.25373 z"
             id="path5074"
             inkscape:connector-curvature="0"
             sodipodi:nodetypes="sccscccccssccccsccccccssccccccscccssccscsscccccccccsccccccscccccccccccccccccccccsscccccsccsccccccscccccsccsccsscccsscccccccsccscccccccscscccccccccscsccccscccscccccscccsccccccccccccccccccccccccccccccccccccccccccccccccccccccccccccccccccccccccccccccccccc" />
        </g>
      </g>
      <g
         style="fill:#ffffff"
         transform="translate(50.507628,-30.304576)"
         id="g5066">
        <g
           style="fill:#ffffff"
           id="g5063"
           transform="translate(-218.19295,-178.797)">
          <path
             sodipodi:nodetypes="sccscccccssccccsccccccssccccccscccssccscsscccccccccsccccccscccccccccccccccccccccsscccccsccsccccccscccccsccsccsscccsscccccccsccscccccccscscccccccccscsccccscccscccccscccsccccccccccccccccccccccccccccccccccccccccccccccccccccccccccccccccccccccccccccccccccc"
             inkscape:connector-curvature="0"
             id="path5051"
             d="m 4.3242188,159.0625 c -4.80096606,0 -10.281816,1.08149 -15.1992188,3.50391 -0.201765,0.0998 -0.4023,0.20198 -0.601562,0.30664 -3.346588,1.75168 -6.623911,4.16507 -9.373047,7.04297 -2.487296,2.60374 -4.758913,5.78339 -6.449219,9.32226 -1.036618,2.17038 -2.014823,4.63394 -2.732422,7.63867 l -0.002,0.008 -4.855469,20.35937 c -0.387425,-0.17069 -0.768146,-0.39472 -1.15625,-0.54883 -4.27797,-1.69865 -8.632715,-2.62509 -12.789062,-2.99804 -2.540572,-0.22795 -5.062585,-0.36133 -7.621094,-0.36133 -3.79252,0 -7.695331,0.42928 -11.542969,1.36914 -0.07038,0.0173 -0.140694,0.0349 -0.210937,0.0527 -3.046617,0.76983 -5.99267,1.79084 -8.806641,3.00977 -0.109035,0.0475 -0.217761,0.0957 -0.326172,0.14453 -2.780325,1.24738 -5.429015,2.69438 -7.947265,4.29492 -1.658596,1.05417 -3.30234,2.21234 -4.947266,3.38867 -3.075067,1.77335 -6.019742,3.72305 -8.699219,5.9375 -0.09296,0.0769 -0.185405,0.15434 -0.277344,0.23242 -0.137337,0.11657 -0.24818,0.26336 -0.384765,0.38086 -0.02802,-0.0264 -0.05199,-0.0577 -0.08008,-0.084 l -0.002,0 c -4.750447,-4.44008 -10.275237,-7.39193 -15.566397,-9.19531 -5.86194,-1.99791 -11.52246,-2.63672 -16.90822,-2.63672 -6.84971,0 -13.87749,1.27827 -20.35741,3.83594 -0.0482,0.0194 -0.0964,0.0389 -0.14453,0.0586 -5.30027,2.12693 -10.33186,4.93145 -14.92969,8.28711 -0.0405,0.0294 -0.0767,0.0643 -0.11718,0.0937 0.10174,-0.15876 0.22486,-0.30187 0.32617,-0.46094 1.64635,-2.58466 2.85035,-5.42568 3.5625,-8.40625 0.83964,-3.51583 0.99218,-6.31726 0.99218,-8.8125 0,-3.24655 -0.37781,-6.2409 -0.95117,-9.03906 -0.66512,-3.3087 -1.76929,-6.76648 -3.44922,-10.18164 -1.93382,-3.98381 -4.87424,-8.04468 -8.66992,-11.35938 -5.3339,-4.65962 -13.76506,-7.95703 -20.92969,-7.95703 -7.53571,0 -16.75426,3.32614 -22.69531,8.69727 -3.18004,2.87501 -5.85425,6.16613 -7.99023,9.58594 -0.038,0.0624 -0.0758,0.12485 -0.11328,0.1875 -0.35846,-0.57472 -0.64989,-1.14946 -1.06055,-1.72266 -3.90945,-5.45668 -9.90307,-9.332 -15.17188,-11.22656 -5.16958,-1.89098 -9.23347,-2.19727 -12.63867,-2.19727 -6.56719,0 -15.22505,2.023 -22.12695,7.55664 -6.90191,5.53365 -10.65591,13.33388 -12.1504,19.5918 l -0.008,0.0391 -18.48633,77.91211 c -0.46853,1.96446 -0.90914,4.01422 -1.33594,6.18359 -8.1e-4,0.004 -0.001,0.008 -0.002,0.0117 -0.42066,2.08485 -0.8091,4.18545 -1.16602,6.30274 -0.0418,0.24881 -0.0802,0.49818 -0.11523,0.74804 -0.29343,2.08877 -0.56173,4.16392 -0.80077,6.22852 -0.0272,0.23731 -0.0513,0.47496 -0.0723,0.71289 -0.21772,2.43108 -0.34961,4.8216 -0.34961,7.27734 0,1.99115 0.0864,3.9383 0.23242,5.92579 0.002,0.0267 0.004,0.0534 0.006,0.0801 0.2712,3.54859 0.97911,7.1411 2.1211,10.57813 0.0396,0.11811 0.0799,0.23595 0.12109,0.35351 1.53681,4.42413 4.18095,9.14393 7.93164,13.07032 0.20491,0.21428 0.41327,0.42525 0.625,0.63281 6.16945,6.05479 15.71683,9.14062 22.64453,9.14062 6.9554,4e-5 17.24484,-2.42812 24.6875,-10.04101 4.52021,-4.60056 7.77202,-10.57146 9.33985,-16.22461 l 0,-0.002 c 1.14247,-4.11969 1.68167,-8.23025 1.7871,-12.20118 l -0.0293,0.72852 c 0.0946,-1.78374 0.15894,-3.44638 0.2168,-5.08594 0.10309,0.0713 -3e-5,-0.007 0.12891,0.0899 0.1832,0.13772 0.36811,0.27314 0.55469,0.40625 0.33924,0.24179 0.78057,0.61359 1.40039,1.3789 0.0717,0.0883 0.14399,0.17623 0.21679,0.26367 0.50763,0.61111 1.09383,1.4747 1.72657,2.82227 0.0778,0.1655 0.15721,0.33022 0.23828,0.49414 0.31247,0.63241 0.55693,1.32013 0.73241,2.43359 5.7e-4,0.004 0.001,0.004 0.002,0.008 l 0.29688,1.95703 c 0.01,0.0619 0.0193,0.12373 0.0293,0.18555 0.18351,1.15267 0.37268,2.40865 0.56445,3.76367 0.0441,0.31398 0.0936,0.62718 0.14843,0.93945 0.59306,3.35235 1.55897,6.81239 3.05078,10.24805 0.13197,0.30257 0.26937,0.60275 0.41211,0.90039 2.23463,4.67855 5.85127,9.3712 10.3047,12.83984 7.19127,5.61296 15.3623,7.08594 21.31835,7.08594 4.65531,0 9.76585,-0.97431 14.375,-3.00586 3.43895,-1.51577 6.76618,-3.66753 9.67188,-6.22461 0.038,-0.0329 0.0676,-0.0725 0.10546,-0.10547 0.007,0.003 0.0129,0.007 0.0195,0.01 0.0957,-0.085 0.20997,-0.14844 0.30469,-0.23438 l -0.28125,0.2461 c 2.81212,1.31435 5.72713,2.47655 8.78906,3.30078 3.13433,0.84371 6.38795,1.47871 9.78906,1.8125 0.0267,0.003 0.0534,0.005 0.0801,0.008 2.38399,0.22689 4.67929,0.37305 7.13477,0.37305 9.25596,0 18.47846,-1.39553 27.22657,-4.33008 4.33905,-1.44714 8.48395,-3.34503 12.46483,-5.54297 0.32125,0.23724 0.621,0.53147 0.94531,0.75781 0.36509,0.25505 0.73629,0.50121 1.11329,0.73828 3.05754,1.92046 6.30037,3.47468 9.58984,4.66211 0.27903,0.10088 0.55967,0.19724 0.8418,0.28906 3.653449,1.1869 7.840103,2.09766 12.724611,2.09766 5.340336,0 10.354023,-0.79215 15.160156,-2.02539 4.433346,-1.12437 8.788026,-2.59487 13.025391,-4.38477 0.07697,-0.0322 0.153794,-0.0647 0.230469,-0.0976 2.623217,-1.1363 5.08771,-2.58611 7.599609,-3.94336 l 0.01953,0.0273 c 6.780877,9.60389 19.401478,13.58008 27.046876,13.58008 5.292089,0 12.667516,-0.64256 20.5253901,-6.41992 0.9601859,-0.69501 1.7862233,-1.41362 2.6015625,-2.13477 8.4965739,8.45614 18.8612984,9.80079 25.6718754,9.80078 5.776624,0 12.864008,-1.71371 18.765625,-5.54687 3.146313,-2.01534 5.990066,-4.59931 8.339843,-7.45117 2.734653,1.73079 5.518779,3.19676 8.246094,4.14844 4.417216,1.54135 9.126661,2.2871 13.605469,2.2871 4.293566,0 8.225721,-0.77184 11.826172,-1.89843 3.789805,2.29788 7.07228,3.2926 9.777343,3.92187 0.10468,0.024 0.2095,0.0475 0.314454,0.0703 4.084393,0.90012 7.0216,0.97851 9.90039,0.97851 4.856,0 11.32676,-0.93017 17.75976,-4.9707 3.13924,-1.97174 6.27982,-4.64275 8.88867,-7.91992 0.22158,-0.2777 0.43777,-0.55966 0.64844,-0.84571 0.14577,-0.19838 0.27136,-0.46638 0.41602,-0.67187 0.81068,1.30864 1.6473,2.5999 2.58008,3.7539 0.037,0.045 0.0741,0.09 0.11132,0.13477 2.59832,3.17328 5.92248,6.05777 9.5625,8.20117 l 0,0.002 c 5.38179,3.169 11.68371,4.56055 16.92578,4.56055 1.64345,0 3.55087,-0.22213 5.58204,-0.61133 0.39953,-0.0692 0.96764,-0.0631 1.33789,-0.14062 3.63773,-0.7616 6.08774,-1.82016 8.16992,-2.82617 3.45457,-1.66912 6.00733,-3.58841 8.14648,-5.4668 2.94119,-2.51849 5.06206,-5.03721 6.79297,-7.45313 l 0.002,0 c 1.51903,-2.12024 2.65523,-4.15702 3.67774,-6.17187 l 36.25781,-53.57422 0.0254,-0.0391 c 2.87092,-4.25763 5.38279,-8.80135 7.24414,-14.10352 1.90664,-5.33815 2.94336,-11.12827 2.94336,-16.84375 0,-6.09437 -1.66687,-13.79623 -6.21094,-20.39844 -7.6227,-11.12975 -20.46198,-13.90234 -27.6289,-13.90234 -4.23424,0 -8.9944,0.75434 -13.57031,2.61719 -0.17325,0.0705 -0.34579,0.14278 -0.51758,0.2168 -3.12651,1.34769 -6.19469,3.19306 -8.94141,5.43359 -2.74358,2.22751 -5.06851,4.82354 -6.9375,7.49609 -0.0519,0.0721 -0.1005,0.16363 -0.15234,0.23633 -0.005,-0.007 -0.0121,-0.0141 -0.0176,-0.0215 -0.0289,0.042 -0.069,0.081 -0.0977,0.12304 l 0.0918,-0.13086 c -1.54163,-2.09796 -3.32365,-4.09919 -5.39453,-5.90234 -7.06305,-6.2256 -16.3776,-8.57227 -23.17969,-8.57226 -6.75456,0 -14.09445,2.60232 -19.16601,6.29687 -4.87392,-1.76734 -9.22455,-2.22852 -12.97071,-2.22852 -2.04735,0 -4.14831,0.13566 -6.26953,0.43165 l -0.0488,0.008 c -0.0462,-0.005 -0.0845,-0.0125 -0.13086,-0.0176 -0.004,-4.9e-4 -0.009,4.9e-4 -0.0137,0 -2.29829,-0.25741 -4.62646,-0.42188 -7.10547,-0.42188 -4.68857,0 -9.353258,0.52829 -13.892571,1.49415 -7.323723,1.48646 -13.759333,4.729 -19.078125,8.60937 -3.36916,2.44775 -6.513268,5.16495 -9.546875,8 -6.875239,-6.12071 -16.818278,-9.63086 -24.451172,-9.63086 -0.77051,0 -1.535412,0.17273 -2.306641,0.20117 1.200199,-4.92549 2.518974,-10.12269 3.654297,-14.89844 l 0.0039,-0.0195 c 0.337489,-1.4146 0.633088,-2.8206 0.880859,-4.37695 0.01757,-0.10797 0.0345,-0.21605 0.05078,-0.32422 0.159671,-1.08644 0.453125,-0.68955 0.453125,-5.42187 0,-6.25159 -2.751096,-14.88811 -8.082031,-20.74219 -3.852932,-4.20159 -8.926554,-7.16982 -13.539062,-8.69141 -3.152435,-1.06761 -6.159634,-1.62469 -8.9218755,-1.83007 -1.6084708,-0.1619 -3.2374897,-0.2978 -4.9646397,-0.2978 z m -227.4374988,37.17188 0.23242,1.32421 c -0.0176,-0.11687 -0.0786,-0.26637 -0.0977,-0.38476 -0.0576,-0.32487 -0.0677,-0.60595 -0.13476,-0.93945 z m 0.66992,14.14453 -0.082,1.18164 c 0.0234,-0.25748 0.013,-0.50699 0.0332,-0.76367 0.008,-0.14372 0.0419,-0.27367 0.0488,-0.41797 z m -0.62109,5.81836 -0.19141,1.20703 c 0.0178,-0.0979 0.0178,-0.20649 0.0352,-0.30469 0.045,-0.30243 0.11482,-0.5988 0.15625,-0.90234 z m 201.046872,0.31054 0.873047,1.00781 c -0.188515,-0.2285 -0.419926,-0.42618 -0.615235,-0.65039 -0.09892,-0.11215 -0.156915,-0.24651 -0.257812,-0.35742 z m 166.835938,2.31055 0.65234,0.76953 c -0.14394,-0.1758 -0.31367,-0.31825 -0.46093,-0.49023 -0.0742,-0.086 -0.11633,-0.19416 -0.19141,-0.2793 z m -129.214844,0.38281 c -0.04078,0.0144 -0.07839,0.0363 -0.119141,0.0508 -0.0304,0.011 -0.06336,0.0144 -0.09375,0.0254 z M 183.40625,226.5 l 0.10156,0.26367 c -0.0186,-0.0493 -0.0476,-0.10099 -0.0664,-0.15039 -0.0148,-0.0385 -0.0202,-0.0748 -0.0352,-0.11328 z m -118.888672,1.5957 0.265625,0.32032 c -0.05405,-0.0667 -0.122961,-0.12323 -0.177734,-0.18946 -0.03379,-0.0408 -0.05389,-0.0902 -0.08789,-0.13086 z m 87.097652,2.72657 0.52344,1.73632 c -0.0581,-0.219 -0.19616,-0.44383 -0.25976,-0.66406 -0.1072,-0.35468 -0.14513,-0.72064 -0.26368,-1.07226 z m -35.22851,0.90234 c -0.009,0.0398 -0.0105,0.0793 -0.0195,0.11914 -0.008,0.0348 -0.0236,0.0726 -0.0312,0.10742 l 0.0508,-0.22656 z m -205.902345,5.37305 0.09766,0.25 c -0.02084,-0.0545 -0.05115,-0.10761 -0.07227,-0.16211 -0.01124,-0.0288 -0.01408,-0.0592 -0.02539,-0.0879 z m 275.976565,1.96289 0.0723,0.59961 c -0.007,-0.0665 -0.0256,-0.13653 -0.0332,-0.20313 -0.0169,-0.13019 -0.0217,-0.26647 -0.0391,-0.39648 z m -389.89258,1.625 0.125,0.0859 c -0.0223,-0.0154 -0.048,-0.0256 -0.0703,-0.041 -0.0195,-0.0133 -0.0352,-0.0316 -0.0547,-0.0449 z m -38.53125,53.89843 c 0.31022,-0.13437 1.2887,0.4699 -1.20313,0.89258 0.0107,-0.13819 0.0181,-0.2682 0.0293,-0.4082 0.11561,-0.0462 0.27814,-0.11549 0.39063,-0.16016 0.26271,-0.10405 0.52381,-0.21214 0.7832,-0.32422 z m 103.97461,12.44922 -0.10156,0.0234 c 0.0106,-0.003 0.0207,-0.007 0.0312,-0.01 0.0236,-0.006 0.0467,-0.008 0.0703,-0.0137 z m 103.310546,10.57032 -1.035157,0.94921 c 0.251053,-0.219 0.365528,-0.36085 0.595703,-0.56835 0.141556,-0.13435 0.298897,-0.24504 0.439454,-0.38086 z m 42.0605465,5.26171 -0.3339844,0.67774 c 0.038527,-0.0753 0.057667,-0.14759 0.095703,-0.22266 0.071728,-0.14696 0.1690418,-0.31011 0.2382814,-0.45508 z m 47.3339845,3.97852 -0.8125,1.29102 c 0.103299,-0.15448 0.155359,-0.31937 0.255859,-0.47461 0.174075,-0.27512 0.393021,-0.53972 0.556641,-0.81641 z m -225.546877,0.21289 -0.40625,0.63867 c 0.075,-0.11424 0.12916,-0.24602 0.20313,-0.36133 0.0596,-0.0945 0.14461,-0.18268 0.20312,-0.27734 z"
             style="font-style:normal;font-variant:normal;font-weight:normal;font-stretch:normal;font-size:166.26571655px;line-height:125%;font-family:'MV Boli';-inkscape-font-specification:'MV Boli, Normal';text-align:start;letter-spacing:0px;word-spacing:0px;writing-mode:lr-tb;text-anchor:start;fill:#ffffff;fill-opacity:1;stroke:none;stroke-width:1px;stroke-linecap:butt;stroke-linejoin:miter;stroke-opacity:1"
             transform="translate(555.58389,63.639611)" />
        </g>
      </g>
      <text
         transform="scale(0.97737609,1.0231476)"
         sodipodi:linespacing="125%"
         id="text4996"
         y="161.68178"
         x="82.28997"
         style="font-style:normal;font-weight:normal;font-size:166.26571655px;line-height:125%;font-family:sans-serif;letter-spacing:0px;word-spacing:0px;fill:#000000;fill-opacity:1;stroke:none;stroke-width:1px;stroke-linecap:butt;stroke-linejoin:miter;stroke-opacity:1"
         xml:space="preserve"><tspan
           style="font-style:normal;font-variant:normal;font-weight:normal;font-stretch:normal;font-size:166.26571655px;line-height:125%;font-family:'MV Boli';-inkscape-font-specification:'MV Boli, Normal';text-align:start;writing-mode:lr-tb;text-anchor:start"
           y="161.68178"
           x="82.28997"
           id="tspan4998"
           sodipodi:role="line">Keshav </tspan></text>
    </g>
  </g>
</svg>
